<svg version="1.1" id="Layer_1" xmlns="http://www.w3.org/2000/svg" x="0" y="0" width="48" height="32" viewBox="0 0 48 32" xml:space="preserve"><style>.st0{fill-rule:evenodd;clip-rule:evenodd}</style><g id="_x5B_mobile_x5D_checkout_x5F_loyalty"><g id="_x5B_mobile_x5D_checkout_x5F_loyalty-16-copy" transform="translate(-83 -1698)"><g id="payment-options" transform="translate(17 1680)"><g id="debit-credit" transform="translate(66 18)"><path id="Rectangle" d="M44 0c2.2 0 4 1.8 4 4v24c0 2.2-1.8 4-4 4H4c-2.2 0-4-1.8-4-4V4c0-2.2 1.8-4 4-4h40zm0 1H4C2.4 1 1.1 2.2 1 3.8V28c0 1.6 1.2 2.9 2.8 3H44c1.6 0 2.9-1.2 3-2.8V4c0-1.6-1.2-2.9-2.8-3H44z"/><path id="Rectangle_1_" class="st0" d="M0 6h48v7H0z"/><path id="Rectangle-Copy" class="st0" d="M6 19h8c.6 0 1 .4 1 1s-.4 1-1 1H6c-.6 0-1-.4-1-1s.4-1 1-1z"/><path id="Rectangle-Copy-2" class="st0" d="M6 23h17c.6 0 1 .4 1 1s-.4 1-1 1H6c-.6 0-1-.4-1-1s.4-1 1-1z"/></g></g></g></g></svg>