<svg xmlns="http://www.w3.org/2000/svg" viewBox="0 0 978.91 620" width="339.52" height="218.77"><defs><style>.cls-1{fill:red;}</style></defs><g id="Layer_2" data-name="Layer 2"><path class="cls-1" d="M251.85,552.62c-27.41,0-44.45-20.74-44.45-53.33s17-53.34,44.45-53.34c28.15,0,44.44,20.74,44.44,53.34S280,552.62,251.85,552.62ZM655.56,386.69H596.3V611.88h68.89V517.07l60,94.81h55.55V386.69H712.6V486Zm-83,0H500v78.52H453.33V386.69H380.74V611.88h72.59V530.4H500v81.48h72.59ZM50.36,534.1c0,14.82-10.37,20-22.22,20a69.69,69.69,0,0,1-23-4.44v62.22a109.64,109.64,0,0,0,36.3,5.93C83,617.81,123,600,123,526V386.69H50.36ZM251.85,380.77c-68.15,0-117,49.63-117,118.52s48.89,118.52,117,118.52,117-49.63,117-118.52S320,380.77,251.85,380.77Zm617,69.67c0-6.37,5.19-10.41,15.27-10.41,18.93,0,45.38,10.08,58.81,20V397.8c-16.9-10.71-42.22-17-64.92-17-42.48,0-80.27,22.14-80.27,73.29,0,73.8,85.93,70.46,85.93,93.11,0,6.93-5.1,11.38-17.68,11.38-22.41,0-57.81-14.8-67.51-24.45v64.45c13.92,9.81,44.12,17.78,72.26,17.78,50.22,0,84-25.19,84-72.76C954.82,468,868.89,473.35,868.89,450.44ZM815.56,175.58,831.86,246H793.34Zm-460-31.85,18.52,88.89h-40ZM166.66,163c0,23-10.37,37.77-43.7,51.11V146.69c8.89-5.19,16.29-7.41,23.7-7.41C161.48,139.28,166.66,151.88,166.66,163Zm468.9-24.45c0,33.34-24.45,46.67-45.93,46.67h-.74V97.06C619.26,99.28,635.56,111.87,635.56,138.54ZM251.11,152.62c0-60.75-36.3-86.67-85.93-86.67C127.4,66,83,80,40,106.69v237h83V288.91C191.85,272.62,251.11,225.21,251.11,152.62ZM772.6,311.14h77.78l8.14,32.59h87.41L863,88.91C845.19,77.06,808.15,63,785.19,57.06L674.82,343.73H760ZM313.33,303h77.78l12.59,40.74h90.37L395.55,14.84c-24.44,2.22-61.48,9.63-82.22,16.29L212.59,343.73h89.63Zm277-37c83.71-.74,134.82-48.15,134.82-127.41,0-94.81-81.48-139.26-220.75-131.85v337h85.93Z"/><path class="cls-1" d="M977.3,159.53a33.33,33.33,0,0,1-10.42,24.75,36.43,36.43,0,0,1-50.48.08,34.6,34.6,0,0,1,.07-49.43,36.34,36.34,0,0,1,50.41-.08A33.12,33.12,0,0,1,977.3,159.53Zm-4.19.15A30,30,0,0,0,964,137.4q-9.07-8.93-22.58-8.92a30.74,30.74,0,0,0-31.2,31.2,29.67,29.67,0,0,0,9,22q9,8.85,22.5,8.85A30.55,30.55,0,0,0,964,181.66,29.63,29.63,0,0,0,973.11,159.68Zm-10.06,19H950.6l-10.8-13.35H937v13.35h-10.5v-40.2H941.6q8.1,0,12.53,3.45t4.42,9.75a12.09,12.09,0,0,1-2.1,7,13.31,13.31,0,0,1-6,4.72Zm-22.2-32.25H937v11.7h3.6a8.07,8.07,0,0,0,5.33-1.57,5.3,5.3,0,0,0,1.87-4.28,5.38,5.38,0,0,0-1.8-4.27A7.5,7.5,0,0,0,940.85,146.48Z"/></g></svg>